<mxfile host="app.diagrams.net" modified="2024-05-15T11:50:11.031Z" agent="Mozilla/5.0 (Windows NT 10.0; Win64; x64) AppleWebKit/537.36 (KHTML, like Gecko) Chrome/124.0.0.0 Safari/537.36 Edg/124.0.0.0" etag="6vNrDFYjDktwTfwm2Nxc" version="24.4.0" type="device">
  <diagram name="Seite-1" id="ZP08srKs3PBr9InOV-i7">
    <mxGraphModel dx="1173" dy="717" grid="0" gridSize="10" guides="1" tooltips="1" connect="1" arrows="1" fold="1" page="0" pageScale="1" pageWidth="827" pageHeight="1169" math="0" shadow="0">
      <root>
        <mxCell id="0" />
        <mxCell id="1" parent="0" />
        <mxCell id="Nqd4xRNDWNyRvfAMd3r8-8" style="edgeStyle=none;curved=1;rounded=0;orthogonalLoop=1;jettySize=auto;html=1;fontSize=12;startSize=8;endSize=8;" edge="1" parent="1" source="Nqd4xRNDWNyRvfAMd3r8-1" target="Nqd4xRNDWNyRvfAMd3r8-3">
          <mxGeometry relative="1" as="geometry" />
        </mxCell>
        <mxCell id="Nqd4xRNDWNyRvfAMd3r8-13" style="edgeStyle=none;curved=1;rounded=0;orthogonalLoop=1;jettySize=auto;html=1;fontSize=12;startSize=8;endSize=8;startArrow=classic;startFill=1;endArrow=none;endFill=0;" edge="1" parent="1" source="Nqd4xRNDWNyRvfAMd3r8-1">
          <mxGeometry relative="1" as="geometry">
            <mxPoint x="-163" y="176" as="targetPoint" />
          </mxGeometry>
        </mxCell>
        <mxCell id="Nqd4xRNDWNyRvfAMd3r8-1" value="Input Protection" style="rounded=1;whiteSpace=wrap;html=1;" vertex="1" parent="1">
          <mxGeometry x="-28" y="146" width="120" height="60" as="geometry" />
        </mxCell>
        <mxCell id="Nqd4xRNDWNyRvfAMd3r8-10" style="edgeStyle=none;curved=1;rounded=0;orthogonalLoop=1;jettySize=auto;html=1;fontSize=12;startSize=8;endSize=8;" edge="1" parent="1" source="Nqd4xRNDWNyRvfAMd3r8-3" target="Nqd4xRNDWNyRvfAMd3r8-4">
          <mxGeometry relative="1" as="geometry" />
        </mxCell>
        <mxCell id="Nqd4xRNDWNyRvfAMd3r8-3" value="DC/DC" style="rounded=1;whiteSpace=wrap;html=1;" vertex="1" parent="1">
          <mxGeometry x="137" y="146" width="120" height="60" as="geometry" />
        </mxCell>
        <mxCell id="Nqd4xRNDWNyRvfAMd3r8-7" style="edgeStyle=none;curved=1;rounded=0;orthogonalLoop=1;jettySize=auto;html=1;entryX=0;entryY=0.25;entryDx=0;entryDy=0;fontSize=12;startSize=8;endSize=8;" edge="1" parent="1" source="Nqd4xRNDWNyRvfAMd3r8-4" target="Nqd4xRNDWNyRvfAMd3r8-5">
          <mxGeometry relative="1" as="geometry" />
        </mxCell>
        <mxCell id="Nqd4xRNDWNyRvfAMd3r8-4" value="Power Distribution&lt;div&gt;(Load Switch)&lt;span style=&quot;white-space: pre;&quot;&gt;&#x9;&lt;/span&gt;&lt;/div&gt;" style="rounded=1;whiteSpace=wrap;html=1;" vertex="1" parent="1">
          <mxGeometry x="302" y="146" width="120" height="60" as="geometry" />
        </mxCell>
        <mxCell id="Nqd4xRNDWNyRvfAMd3r8-11" style="edgeStyle=none;curved=1;rounded=0;orthogonalLoop=1;jettySize=auto;html=1;fontSize=12;startSize=8;endSize=8;exitX=1;exitY=0.25;exitDx=0;exitDy=0;" edge="1" parent="1" source="Nqd4xRNDWNyRvfAMd3r8-5">
          <mxGeometry relative="1" as="geometry">
            <mxPoint x="650" y="175" as="targetPoint" />
          </mxGeometry>
        </mxCell>
        <mxCell id="Nqd4xRNDWNyRvfAMd3r8-5" value="Output Power Protection" style="rounded=1;whiteSpace=wrap;html=1;verticalAlign=top;" vertex="1" parent="1">
          <mxGeometry x="466" y="140" width="120" height="141" as="geometry" />
        </mxCell>
        <mxCell id="Nqd4xRNDWNyRvfAMd3r8-6" value="High Side Switch" style="rounded=1;whiteSpace=wrap;html=1;" vertex="1" parent="1">
          <mxGeometry x="480.5" y="201" width="91" height="60" as="geometry" />
        </mxCell>
        <mxCell id="Nqd4xRNDWNyRvfAMd3r8-12" value="Load" style="text;html=1;align=center;verticalAlign=middle;resizable=0;points=[];autosize=1;strokeColor=none;fillColor=none;fontSize=16;" vertex="1" parent="1">
          <mxGeometry x="654" y="160.5" width="54" height="31" as="geometry" />
        </mxCell>
        <mxCell id="Nqd4xRNDWNyRvfAMd3r8-14" value="Power Switch" style="rounded=0;whiteSpace=wrap;html=1;fillColor=none;verticalAlign=top;dashed=1;dashPattern=12 12;" vertex="1" parent="1">
          <mxGeometry x="-58" y="110" width="670" height="188" as="geometry" />
        </mxCell>
      </root>
    </mxGraphModel>
  </diagram>
</mxfile>
